<svg viewBox="0 0 256 256" xmlns="http://www.w3.org/2000/svg" role="img" aria-label="Aetherfin">
  <title>Aetherfin</title>
  <defs>
    <linearGradient id="af-bg" x1="0%" y1="0%" x2="100%" y2="100%">
      <stop offset="0%" stop-color="#A89DEC"/>
      <stop offset="55%" stop-color="#5644C9"/>
      <stop offset="100%" stop-color="#251F58"/>
    </linearGradient>
    <linearGradient id="af-sheen" x1="50%" y1="0%" x2="50%" y2="100%">
      <stop offset="0%" stop-color="#ffffff" stop-opacity="0.18"/>
      <stop offset="100%" stop-color="#ffffff" stop-opacity="0"/>
    </linearGradient>
    <radialGradient id="af-glow" cx="50%" cy="35%" r="60%">
      <stop offset="0%" stop-color="#A89DEC" stop-opacity="0.35"/>
      <stop offset="100%" stop-color="#A89DEC" stop-opacity="0"/>
    </radialGradient>
    <clipPath id="af-clip">
      <rect width="256" height="256" rx="56" ry="56"/>
    </clipPath>
  </defs>
  <g clip-path="url(#af-clip)">
    <rect width="256" height="256" fill="url(#af-bg)"/>
    <rect width="256" height="256" fill="url(#af-glow)"/>
    <rect width="256" height="140" fill="url(#af-sheen)"/>
    <g transform="scale(2.56)">
      <path d="M25 20 C 40 20, 60 35, 85 50 C 60 65, 40 80, 25 80 C 35 60, 35 40, 25 20 Z" fill="#ffffff"/>
      <path d="M25 20 C 25 20, 45 40, 45 50 C 45 60, 25 80, 25 80 C 20 80, 15 75, 15 70 L 15 30 C 15 25, 20 20, 25 20 Z" fill="#CDC6F4" opacity="0.9"/>
    </g>
  </g>
</svg>