<svg viewBox="0 0 800 200" xmlns="http://www.w3.org/2000/svg" role="img" aria-label="Aetherfin">
  <title>Aetherfin</title>
  <defs>
    <linearGradient id="wm-bg" x1="0%" y1="0%" x2="100%" y2="100%">
      <stop offset="0%" stop-color="#A89DEC"/>
      <stop offset="55%" stop-color="#5644C9"/>
      <stop offset="100%" stop-color="#251F58"/>
    </linearGradient>
    <linearGradient id="wm-text" x1="0%" y1="0%" x2="100%" y2="0%">
      <stop offset="0%" stop-color="#F2F1F8"/>
      <stop offset="100%" stop-color="#A89DEC"/>
    </linearGradient>
  </defs>
  <g transform="translate(20, 20)">
    <clipPath id="wm-clip"><rect width="160" height="160" rx="36" ry="36"/></clipPath>
    <g clip-path="url(#wm-clip)">
      <rect width="160" height="160" fill="url(#wm-bg)"/>
      <g transform="scale(1.6)">
        <path d="M25 20 C 40 20, 60 35, 85 50 C 60 65, 40 80, 25 80 C 35 60, 35 40, 25 20 Z" fill="#ffffff"/>
        <path d="M25 20 C 25 20, 45 40, 45 50 C 45 60, 25 80, 25 80 C 20 80, 15 75, 15 70 L 15 30 C 15 25, 20 20, 25 20 Z" fill="#CDC6F4" opacity="0.9"/>
      </g>
    </g>
  </g>
  <text x="210" y="132" font-family="Inter, system-ui, -apple-system, 'Segoe UI', Roboto, sans-serif"
        font-size="104" font-weight="700" letter-spacing="-3"
        fill="url(#wm-text)">Aetherfin</text>
</svg>